# xmcd CD database file
#
# Track frame offsets:
#	150
#	10690
#	21372
#	31745
#	43192
#	55085
#	66142
#	77492
#	88380
#	99252
#	110287
#	120930
#	131705
#	142150
#	154060
#	165807
#	176692
#	187010
#	197862
#	209022
#	220287
#	230715
#	240930
#	251625
#	262255
#	273097
#	283660
#	294805
#	305485
#	316110
#	327450
#	338120
#
# Disc length: 4714 seconds
#
# Revision: 0
# Processed by: cddbd v1.5.2PL0 Copyright (c) Steve Scherf et al.
# Submitted via: CDex 1.51
#
DISCID=ce126820
DTITLE=Various Artist - Blue Note Ever!2
DYEAR=2005
DGENRE=Jazz
TTITLE0=Tune Up -- Sonny Rollins
TTITLE1=Come Rain Or Shine -- Art Blakey and The Jazz Messengers
TTITLE2=When Your Lover Has Gone -- Donal Byrd
TTITLE3=Cleopatora's Dream -- Bud Powell
TTITLE4=Angel Eyes -- The Three Sounds
TTITLE5=Birk's Works -- Kenny Burrell
TTITLE6=Taboo -- Duke Pearson
TTITLE7=I'll Close My Eyes -- Dizzy Reece
TTITLE8=I Love You -- Jackie Mclern
TTITLE9=C Jam Blues -- Horace Parlan
TTITLE10=Yesterday -- Dizzy Reece
TTITLE11=I'm A Fool To Want You -- Duke Pearson
TTITLE12=On Green Dolphin Street -- The Three Sounds
TTITLE13=Si-Joya -- Duke Jordan
TTITLE14=Move -- Art Taylor
TTITLE15=Asiatic Raes -- Freddie Hubbard
TTITLE16=Willow Weep For Me -- Stanley Turrentine
TTITLE17=Jeannine -- Donal Byrd
TTITLE18=Lullaby Of The Leaves -- Grant Green
TTITLE19=Love For Sale -- Stanley Turrentine
TTITLE20='Round Midnight -- Grant Green
TTITLE21=Crisis -- Freddie Hubbard
TTITLE22=You'd Be So Nice To Come Home To -- Kenny Clarke
TTITLE23=Nature Boy -- Ike Quebec
TTITLE24=Dem Tambourines -- Don Wilkerson
TTITLE25=Mesi Bon Dieu -- Charlie Rouse
TTITLE26=If I Were A Bell -- The Three Sounds
TTITLE27=Cristo Redentor -- Donal Byrd
TTITLE28=Blind Man, Blind Man -- Herbie Hankock
TTITLE29=Blue Bossa -- Joe Henderson
TTITLE30=Bluesville -- Blue Mitchell
TTITLE31=The Sidewinder -- Lee Morgan
EXTD=YEAR: 2005
EXTT0=
EXTT1=
EXTT2=
EXTT3=
EXTT4=
EXTT5=
EXTT6=
EXTT7=
EXTT8=
EXTT9=
EXTT10=
EXTT11=
EXTT12=
EXTT13=
EXTT14=
EXTT15=
EXTT16=
EXTT17=
EXTT18=
EXTT19=
EXTT20=
EXTT21=
EXTT22=
EXTT23=
EXTT24=
EXTT25=
EXTT26=
EXTT27=
EXTT28=
EXTT29=
EXTT30=
EXTT31=
PLAYORDER=
